RWalking1_XZ.mot
version=1
datacolumns 20
datarows 36
range 3.420000 3.770000
inDegrees=yes
endheader
time	pelvis_tilt	pelvis_list	pelvis_rotation	hip_flexion_r	hip_adduction_r	hip_rotation_r	knee_angle_r	ankle_angle_r	hip_flexion_l	hip_adduction_l	hip_rotation_l	knee_angle_l	ankle_angle_l	pelvis_tx	pelvis_ty	pelvis_tz	lumbar_bending	lumbar_rotation	lumbar_extension
3.420000	-7.009622	-1.896162	-2.582382	-10.579493	5.596438	-7.730130	-0.111439	11.366817	32.157280	-7.174344	-1.984374	-3.943056	1.147834	2.314688	0.926149	0.001201	-0.000000	-0.000000	0.000000
3.430000	-7.393700	-1.874674	-2.540497	-10.586326	5.452415	-7.851226	-0.983406	11.803880	32.444482	-7.041913	-1.476195	-3.347138	0.856619	2.327702	0.924347	-0.001019	-0.000000	-0.000000	0.000000
3.440000	-7.840919	-1.739496	-2.358519	-10.433627	5.199506	-7.947158	-2.041257	12.204243	32.835988	-6.702926	-0.878064	-3.199330	0.179321	2.340857	0.922837	-0.003204	-0.000000	-0.000000	0.000000
3.450000	-8.331535	-1.532189	-2.050524	-10.153635	4.876670	-7.999810	-3.280891	12.537373	33.314125	-6.201517	-0.232633	-3.476949	-0.858999	2.354235	0.921555	-0.005364	-0.000000	-0.000000	0.000000
3.460000	-8.840236	-1.280963	-1.648728	-9.775874	4.504007	-7.976453	-4.709062	12.742560	33.847012	-5.582604	0.406807	-4.133456	-2.170403	2.367928	0.920460	-0.007524	-0.000000	-0.000000	0.000000
3.470000	-9.336069	-0.996296	-1.201165	-9.322813	4.079191	-7.820595	-6.345842	12.723879	34.385919	-4.887986	0.981238	-5.098956	-3.613904	2.382016	0.919551	-0.009723	-0.000000	-0.000000	0.000000
3.480000	-9.787822	-0.679102	-0.761604	-8.800888	3.589969	-7.460811	-8.225333	12.357595	34.875227	-4.158818	1.434831	-6.291861	-5.014554	2.396540	0.918862	-0.012008	-0.000000	-0.000000	0.000000
3.490000	-10.168978	-0.332776	-0.373415	-8.196058	3.031136	-6.839329	-10.391306	11.515673	35.267600	-3.435658	1.729925	-7.637450	-6.192247	2.411475	0.918446	-0.014431	-0.000000	-0.000000	0.000000
3.500000	-10.454699	0.034456	-0.059012	-7.485568	2.408933	-5.945360	-12.883621	10.104022	35.527745	-2.750780	1.851476	-9.079876	-6.996834	2.426703	0.918357	-0.017033	-0.000000	-0.000000	0.000000
3.510000	-10.617039	0.420232	0.175100	-6.659859	1.729307	-4.831963	-15.714057	8.105748	35.624989	-2.118330	1.794080	-10.575900	-7.341662	2.441994	0.918633	-0.019815	-0.000000	-0.000000	0.000000
3.520000	-10.630829	0.837923	0.324636	-5.737227	0.986966	-3.613118	-18.834213	5.618918	35.532455	-1.531950	1.551626	-12.072535	-7.229028	2.456978	0.919281	-0.022706	-0.000000	-0.000000	0.000000
3.530000	-10.489987	1.309270	0.385121	-4.768181	0.173585	-2.457359	-22.099903	2.881807	35.242533	-0.970897	1.135292	-13.482665	-6.763828	2.471061	0.920247	-0.025548	-0.000000	-0.000000	0.000000
3.540000	-10.227494	1.843230	0.366531	-3.835827	-0.700512	-1.588130	-25.238251	0.282166	34.792142	-0.407808	0.621364	-14.668689	-6.151032	2.483330	0.921379	-0.028112	-0.000000	-0.000000	0.000000
3.550000	-9.935593	2.416066	0.310595	-3.049524	-1.586061	-1.284070	-27.828896	-1.652257	34.287193	0.181477	0.197045	-15.438248	-5.674658	2.492481	0.922409	-0.030127	-0.000000	-0.000000	0.000000
3.560000	-9.628075	3.156498	0.247466	-2.282723	-2.682459	-1.699445	-30.224690	-3.016505	33.693954	0.977026	-0.061960	-15.835128	-5.433699	2.499903	0.923382	-0.031937	-0.000000	-0.000000	0.000000
3.570000	-9.091914	4.568441	0.134418	-0.971759	-4.770832	-2.890763	-34.304455	-5.018851	32.613807	2.525547	-0.360675	-16.285669	-5.194870	2.511879	0.925028	-0.035004	-0.000000	-0.000000	0.000000
3.580000	-0.000000	0.000000	-0.000000	-0.000000	0.000000	-0.000000	-0.000000	-0.000000	-0.000000	-0.000000	0.000000	-0.000000	-0.000000	0.000000	0.000000	0.000000	-0.000000	-0.000000	0.000000
3.590000	-0.000000	0.000000	-0.000000	-0.000000	0.000000	-0.000000	-0.000000	-0.000000	-0.000000	-0.000000	0.000000	-0.000000	-0.000000	0.000000	0.000000	0.000000	-0.000000	-0.000000	0.000000
3.600000	-0.000000	0.000000	-0.000000	-0.000000	0.000000	-0.000000	-0.000000	-0.000000	-0.000000	-0.000000	0.000000	-0.000000	-0.000000	0.000000	0.000000	0.000000	-0.000000	-0.000000	0.000000
3.610000	-0.000000	0.000000	-0.000000	-0.000000	0.000000	-0.000000	-0.000000	-0.000000	-0.000000	-0.000000	0.000000	-0.000000	-0.000000	0.000000	0.000000	0.000000	-0.000000	-0.000000	0.000000
3.620000	-0.000000	0.000000	-0.000000	-0.000000	0.000000	-0.000000	-0.000000	-0.000000	-0.000000	-0.000000	0.000000	-0.000000	-0.000000	0.000000	0.000000	0.000000	-0.000000	-0.000000	0.000000
3.630000	-0.000000	0.000000	-0.000000	-0.000000	0.000000	-0.000000	-0.000000	-0.000000	-0.000000	-0.000000	0.000000	-0.000000	-0.000000	0.000000	0.000000	0.000000	-0.000000	-0.000000	0.000000
3.640000	-0.000000	0.000000	-0.000000	-0.000000	0.000000	-0.000000	-0.000000	-0.000000	-0.000000	-0.000000	0.000000	-0.000000	-0.000000	0.000000	0.000000	0.000000	-0.000000	-0.000000	0.000000
3.650000	-0.000000	0.000000	-0.000000	-0.000000	0.000000	-0.000000	-0.000000	-0.000000	-0.000000	-0.000000	0.000000	-0.000000	-0.000000	0.000000	0.000000	0.000000	-0.000000	-0.000000	0.000000
3.660000	-0.000000	0.000000	-0.000000	-0.000000	0.000000	-0.000000	-0.000000	-0.000000	-0.000000	-0.000000	0.000000	-0.000000	-0.000000	0.000000	0.000000	0.000000	-0.000000	-0.000000	0.000000
3.670000	-0.000000	0.000000	-0.000000	-0.000000	0.000000	-0.000000	-0.000000	-0.000000	-0.000000	-0.000000	0.000000	-0.000000	-0.000000	0.000000	0.000000	0.000000	-0.000000	-0.000000	0.000000
3.680000	-0.000000	0.000000	-0.000000	-0.000000	0.000000	-0.000000	-0.000000	-0.000000	-0.000000	-0.000000	0.000000	-0.000000	-0.000000	0.000000	0.000000	0.000000	-0.000000	-0.000000	0.000000
3.690000	-0.000000	0.000000	-0.000000	-0.000000	0.000000	-0.000000	-0.000000	-0.000000	-0.000000	-0.000000	0.000000	-0.000000	-0.000000	0.000000	0.000000	0.000000	-0.000000	-0.000000	0.000000
3.700000	-0.000000	0.000000	-0.000000	-0.000000	0.000000	-0.000000	-0.000000	-0.000000	-0.000000	-0.000000	0.000000	-0.000000	-0.000000	0.000000	0.000000	0.000000	-0.000000	-0.000000	0.000000
3.710000	-0.000000	0.000000	-0.000000	-0.000000	0.000000	-0.000000	-0.000000	-0.000000	-0.000000	-0.000000	0.000000	-0.000000	-0.000000	0.000000	0.000000	0.000000	-0.000000	-0.000000	0.000000
3.720000	-0.000000	0.000000	-0.000000	-0.000000	0.000000	-0.000000	-0.000000	-0.000000	-0.000000	-0.000000	0.000000	-0.000000	-0.000000	0.000000	0.000000	0.000000	-0.000000	-0.000000	0.000000
3.730000	-0.000000	0.000000	-0.000000	-0.000000	0.000000	-0.000000	-0.000000	-0.000000	-0.000000	-0.000000	0.000000	-0.000000	-0.000000	0.000000	0.000000	0.000000	-0.000000	-0.000000	0.000000
3.740000	-0.000000	0.000000	-0.000000	-0.000000	0.000000	-0.000000	-0.000000	-0.000000	-0.000000	-0.000000	0.000000	-0.000000	-0.000000	0.000000	0.000000	0.000000	-0.000000	-0.000000	0.000000
3.750000	-0.000000	0.000000	-0.000000	-0.000000	0.000000	-0.000000	-0.000000	-0.000000	-0.000000	-0.000000	0.000000	-0.000000	-0.000000	0.000000	0.000000	0.000000	-0.000000	-0.000000	0.000000
3.760000	-0.000000	0.000000	-0.000000	-0.000000	0.000000	-0.000000	-0.000000	-0.000000	-0.000000	-0.000000	0.000000	-0.000000	-0.000000	0.000000	0.000000	0.000000	-0.000000	-0.000000	0.000000
3.770000	-0.000000	0.000000	-0.000000	-0.000000	0.000000	-0.000000	-0.000000	-0.000000	-0.000000	-0.000000	0.000000	-0.000000	-0.000000	0.000000	0.000000	0.000000	-0.000000	-0.000000	0.000000
